<svg width="500" height="198" viewBox="0 0 500 198" xmlns="http://www.w3.org/2000/svg"><title>f6f18d65-0f4b-4775-b00d-9e8f6e405cf9@1.00x</title><desc>Created with sketchtool.</desc><g fill-rule="nonzero" fill="none"><path d="M499.14 24.521c-.655-1.686-2.11-3.037-4.508-4.324-11.638-6.247-23.757-6.426-35.879-1.935-5.307 2.187-15.441 7.138-26.5 23.337-2.784-3.967-6.56-7.136-10.95-9.19-6.523-3.182-15.081-4.795-25.437-4.795-15.26 0-28.223 3.381-38.53 10.049-7.096 4.474-12.843 10.791-16.627 18.277-.005-5.149-1.61-10.169-4.594-14.365-6.428-8.931-18.554-13.459-36.042-13.459-15.259 0-28.222 3.381-38.529 10.05-4.646 2.974-8.747 6.724-12.125 11.086 0 0 2.708-7.988 3.468-10.239.837-2.48.321-5.216-1.36-7.222-1.681-2.005-4.286-2.99-6.874-2.599-2.087.316-39.35 6.083-39.35 6.083-8.466 1.276-11.942 6.616-13.368 10.874 0 0-6.2 18.291-7.567 22.164-.52 1.471-.237 3.106.746 4.317.984 1.211 2.527 1.822 4.073 1.614l7.309-.98-23.373 70.155h-.006l-6.271 18.822c-.525 1.575-.169 3.311.933 4.552 1.102 1.242 2.783 1.801 4.41 1.467l66.657-13.7c7.414 2.746 15.248 4.18 23.154 4.24 15.263 0 28.248-3.377 38.6-10.039 6.924-4.343 12.581-10.434 16.4-17.661.003 5.145 1.604 10.161 4.582 14.356 6.4 8.888 18.478 13.4 35.905 13.4 15.262 0 28.247-3.378 38.595-10.039.67-.431 12.961-7.594 20.992-31.059 0 0 16.51-47.634 16.435-47.851l.879-2.627c.832-2.504 1.472-5.067 1.916-7.667 0 0 21.824 4.45 38.134-2.53 11.84-5.191 20.433-13.737 24.465-26.316.829-2.595.937-4.578.237-6.246zM364.671 128.386c7.688 0 14.29-3.107 16.809-10.632l14.92-44.579-32.026 17-9.231 27.584c-2.518 7.52 1.84 10.627 9.528 10.627z" id="Path" fill="#fff"/><path d="M496.248 25.3c-.544-1.4-1.753-2.522-3.744-3.591-9.665-5.188-19.728-5.336-29.8-1.607-5.079 2.143-9.629 5.37-13.332 9.454v-.013l-.286.339-.451.535c-.25.302-.495.609-.736.921l-.355.47c-.271.365-.535.737-.792 1.116l-.225.332c-.306.462-.602.934-.887 1.416l-.06.1c-1.329 2.269-2.403 4.678-3.2 7.184-.387 1.095-.581 2.249-.574 3.41l-.008.191c8.867-3.073 14.423-4.957 14.667-4.454.291.461-13.174 7.2-13.479 7.354l-.018.009c.827.942 1.832 1.712 2.957 2.265 1.753.943 3.58 1.74 5.464 2.383l.361.113c.468.154.936.3 1.406.435.314.089.628.162.943.241.275.068.55.143.826.2.436.1.872.178 1.309.257l.464.087c.512.086 1.025.154 1.539.215l.244.032c.551.061 1.1.1 1.656.139l.111.009c5.281.247 10.556-.607 15.49-2.508 9.832-4.311 16.967-11.408 20.316-21.853.685-2.15.775-3.796.194-5.181zm-30.032 15.658l-1.331.57c-.369-2.37-1.36-4.599-2.873-6.46l1.155-.495c1.236.592 2.221 1.604 2.779 2.856.466 1.117.561 2.354.27 3.529zm4.784-2.047l-1.332.57c-.367-2.37-1.359-4.6-2.873-6.46l1.155-.495c1.236.592 2.221 1.604 2.78 2.855.465 1.117.56 2.355.27 3.53zm4.78-2.048l-1.331.57c-.369-2.37-1.36-4.599-2.873-6.46l1.155-.495c1.236.592 2.221 1.604 2.779 2.856.465 1.117.558 2.354.267 3.529h.003zm4.78-2.047l-1.331.57c-.367-2.37-1.358-4.6-2.873-6.46l1.155-.495c1.236.591 2.221 1.604 2.779 2.855.465 1.118.559 2.355.267 3.53h.003z" id="Shape" fill="#013369"/><path d="M372.119 67.346c2.894-6.215 8.876-8.832 15.915-8.832 2.552-.126 5.093.406 7.38 1.546l31.3-9.788c-2.873-7.97-12.159-13.841-31.288-13.841-29.443 0-44.729 13.9-49.438 27.971l-4.138 12.41 30.269-9.466zM427.723 56.537l-31.323 16.591-14.872 44.626c-2.518 7.525-9.12 10.632-16.808 10.632-7.688 0-12.046-3.107-9.528-10.632l9.227-27.687-32.778 17.361-5.028 15.072c-4.708 14.068 1.27 27.971 30.713 27.971 27.434 0 43.685-10.178 51.186-32.714l17.8-53.162c.736-2.155 1.19-4.396 1.352-6.667.024-.317.035-.632.045-.947l.02-.4-.006-.044zM265.3 100.753l10.533-31.607c2.518-7.524 8.957-10.632 16.645-10.632 7.688 0 12.209 3.108 9.691 10.632l-7.469 22.412 30.186-9.44 5.867-17.526c.736-2.155 1.191-4.396 1.352-6.667.025-.317.036-.632.046-.947l.019-.4c.153-10.979-8.391-20.146-32.3-20.146-29.443 0-44.729 13.9-49.438 27.971l-15.265 45.775 30.133-9.425zM251.715 149.759l-.094.056c3.363.453 6.754.671 10.148.653 27.434 0 43.685-10.178 51.186-32.714l.175-.523-61.415 32.528zM188.022 124.92l29.889-9.347 24.4-72.552c.823-2.542 1.065-5.2-3.047-4.579l-32.939 5.07c-4.281.762-5.7 2.435-6.648 5.262l-5.911 17.647 14.409-2.048-20.153 60.547z" id="Path" fill="#013369"/><path id="Path" fill="#D50A0A" d="M351.573 81.62l-12.605 4.352-155.944 53.841-4.612 14.079 160.741-67.088zM241.149 146.961c3.393 1.365 6.942 2.305 10.566 2.8l61.417-32.537 4.454-13.234-103.975 48.554 27.538-5.583zM456.46 41.1c-.145-.231-14.177 6.5-14.177 6.5l-107 48.448-3.73 11.541 32.822-17.419 32.026-17 31.279-16.6 15.286-8.112.015-.007c.305-.151 13.77-6.888 13.479-7.351z"/><path d="M138.785 22.434c-9.51 7.05-21.659 9.512-33.163 6.72-15.357-3.629-27.987-14.505-33.854-29.154-5.865 14.65-18.495 25.527-33.853 29.154-11.504 2.793-23.654.331-33.163-6.72h-4.752v122.248c.091 5.606 2.132 11.006 5.771 15.272 6.193 7.524 16.7 12.4 31.217 14.5 11.565 1.674 20.116 5.309 26.146 11.111 4.43 4.265 8.634 11.65 8.634 11.65s4.365-7.539 8.635-11.65c6.03-5.8 14.584-9.438 26.146-11.111 14.518-2.1 25.023-6.977 31.218-14.5 3.636-4.268 5.676-9.667 5.77-15.273v-122.247h-4.752z" id="Path" fill="#fff"/><path d="M139.23 27.2c-10.13 6.936-22.758 9.171-34.653 6.133-23.63-5.9-32.809-23.6-32.809-23.6s-9.178 17.7-32.808 23.6c-11.895 3.038-24.523.803-34.653-6.133v117.476c0 3.992 1.672 20.946 33.3 25.516 12.485 1.808 21.812 5.822 28.513 12.271 2.142 2.052 4.037 4.346 5.648 6.836 1.611-2.488 3.504-4.782 5.642-6.836 6.709-6.449 16.035-10.463 28.522-12.271 31.625-4.57 33.292-21.524 33.3-25.516l-.002-117.476z" id="Path" fill="#013369"/><path d="M71.768 177.34s9.179-11.313 33.029-14.993c27.32-4.215 26.508-17.042 26.509-17.693v-61.523h-119.076v61.523c0 .648-.806 13.477 26.51 17.693 23.849 3.681 33.028 14.993 33.028 14.993z" id="Path" fill="#fff"/><path id="Path" fill="#D50A0A" d="M44.012 128.1v-29.261l-3.674-2.057v-7.591h16.718v7.587l-3.5 2.057v59.685l-8.939-2.679-12.917-38.125v25.135l4.1 3.149v7.746l-17.94-4.559v-6.6l4.105-1.605v-42.121l-4.2-2.083v-7.587h13.571zM74.792 154.854l3.581 4.29v7.587l-17.773-6.639v-6.441l3.923-1.606v-53.21l-3.9-1.971v-7.673h30.859v15.44h-6.782l-2.055-6.339h-7.853v17.854h5.893l2.315-3.391h4.729v15.888h-4.729l-2.232-3.212h-5.98zM94.409 157.541v-7.587l4.413-3.624v-47.5l-3.769-1.971v-7.668h17.793v7.673l-3.5 1.971v44.565l7.654-2.071 1.466-11.678h7.316v19.51z"/><path fill="#fff" d="M15.326 70.544l-5.385-4.052h6.581l2.178-6.235 2.173 6.235h6.577l-5.385 4.053 1.981 6.329-5.346-3.76-5.35 3.76zM38.691 70.544l-5.385-4.052h6.581l2.173-6.235 2.173 6.235h6.582l-5.385 4.053 1.981 6.329-5.351-3.76-5.35 3.76zM15.326 49.458l-5.385-4.052h6.581l2.178-6.236 2.173 6.236h6.577l-5.385 4.052 1.981 6.329-5.346-3.76-5.35 3.76zM38.691 49.458l-5.385-4.052h6.581l2.173-6.236 2.173 6.236h6.582l-5.385 4.052 1.981 6.329-5.351-3.76-5.35 3.76zM130.193 76.874l-5.351-3.76-5.35 3.76 1.98-6.33-5.384-4.052h6.581l2.173-6.235 2.173 6.235h6.585l-5.385 4.052zM106.828 76.874l-5.351-3.76-5.351 3.76 1.981-6.33-5.385-4.052h6.578l2.174-6.235 2.173 6.235h6.581l-5.385 4.052zM130.193 55.787l-5.351-3.76-5.35 3.76 1.98-6.329-5.384-4.053h6.581l2.173-6.235 2.173 6.235h6.585l-5.385 4.053zM106.828 55.787l-5.351-3.76-5.351 3.76 1.981-6.329-5.385-4.053h6.578l2.174-6.235 2.173 6.235h6.581l-5.385 4.053z"/><path d="M86.6 32.542c-2.454 1.453-4.701 3.229-6.682 5.281.853.489 1.666 1.044 2.432 1.661-.587.522-1.189 1.083-1.747 1.612-2.101-1.74-4.567-2.986-7.214-3.646.678-.486 1.4-.964 2.11-1.428.734.194 1.455.432 2.16.712 2.513-1.947 5.27-3.557 8.2-4.791-.519-.178-1.069-.246-1.616-.2-17.285.223-33.209 13.128-30.2 35.208.321 2.342 1.232 6.6 2.388 8.469.845-7.109 2.824-14.037 5.863-20.52-.849-.305-1.72-.546-2.606-.721.419-.878 1-2 1-2 2.938.549 5.695 1.812 8.03 3.678-.557.9-.934 1.488-1.2 1.95-.8-.635-1.65-1.203-2.542-1.7-3.495 6.136-6.059 12.758-7.606 19.648.047.246.549.373.953.32 18.939-2.451 27.806-12.112 30.5-22.581 1.715-6.594 1.301-13.562-1.183-19.906-.162-.411-.486-1.095-1.04-1.046zm-16.282 20.858c-2.35-1.951-5.156-3.275-8.156-3.849 0 0 .864-1.41 1.357-2.143 3.022.605 5.843 1.964 8.2 3.951-.498.718-.976 1.406-1.401 2.041zm3.11-4.367c-2.359-1.996-5.184-3.364-8.212-3.978.481-.621 1.046-1.282 1.586-1.894 3.006.605 5.814 1.949 8.171 3.91-.55.657-1.062 1.329-1.545 1.961v.001zm3.463-4.165c-2.295-1.91-5.02-3.235-7.94-3.86.691-.653 1.4-1.214 2.021-1.733 2.8.657 5.405 1.964 7.606 3.815-.585.598-1.151 1.182-1.687 1.777v.001z" fill="#fff"/></g></svg>